<svg width="24" height="24" viewBox="0 0 24 24" fill="none" xmlns="http://www.w3.org/2000/svg">
<path fill-rule="evenodd" clip-rule="evenodd" d="M20.66 5.17L18.16 3.5C17.15 2.83 15.84 2.83 14.83 3.5L12.33 5.17C12.21 5.25 12.1 5.34 11.99 5.43C11.89 5.34 11.77 5.25 11.65 5.17L9.16 3.5C8.16 2.83 6.84 2.83 5.84 3.5L3.34 5.17C2.51 5.73 2 6.66 2 7.67V19.6C2 20.7 2.9 21.6 4 21.6H20C21.1 21.6 22 20.7 22 19.6V7.67C22 6.67 21.5 5.73 20.66 5.17ZM11 19.6H8.5V18.1C8.5 17.55 8.05 17.1 7.5 17.1C6.95 17.1 6.5 17.55 6.5 18.1V19.6H4V7.67C4 7.34 4.17 7.02 4.45 6.84L6.95 5.17C7.29 4.95 7.72 4.95 8.06 5.17L10.56 6.84C10.84 7.03 11.01 7.34 11.01 7.67V19.6H11ZM20 19.6H17.5V18.1C17.5 17.55 17.05 17.1 16.5 17.1C15.95 17.1 15.5 17.55 15.5 18.1V19.6H13V7.67C13 7.34 13.17 7.02 13.45 6.84L15.95 5.17C16.29 4.95 16.72 4.95 17.06 5.17L19.56 6.84C19.84 7.03 20.01 7.34 20.01 7.67V19.6H20ZM7 15.1C7 15.65 6.55 16.1 6 16.1C5.45 16.1 5 15.65 5 15.1C5 14.55 5.45 14.1 6 14.1C6.55 14.1 7 14.55 7 15.1ZM15 16.1C15.55 16.1 16 15.65 16 15.1C16 14.55 15.55 14.1 15 14.1C14.45 14.1 14 14.55 14 15.1C14 15.65 14.45 16.1 15 16.1ZM7 12.1C7 12.65 6.55 13.1 6 13.1C5.45 13.1 5 12.65 5 12.1C5 11.55 5.45 11.1 6 11.1C6.55 11.1 7 11.55 7 12.1ZM15 13.1C15.55 13.1 16 12.65 16 12.1C16 11.55 15.55 11.1 15 11.1C14.45 11.1 14 11.55 14 12.1C14 12.65 14.45 13.1 15 13.1ZM7 9.1C7 9.65 6.55 10.1 6 10.1C5.45 10.1 5 9.65 5 9.1C5 8.55 5.45 8.1 6 8.1C6.55 8.1 7 8.55 7 9.1ZM15 10.1C15.55 10.1 16 9.65 16 9.1C16 8.55 15.55 8.1 15 8.1C14.45 8.1 14 8.55 14 9.1C14 9.65 14.45 10.1 15 10.1ZM10 15.1C10 15.65 9.55 16.1 9 16.1C8.45 16.1 8 15.65 8 15.1C8 14.55 8.45 14.1 9 14.1C9.55 14.1 10 14.55 10 15.1ZM18 16.1C18.55 16.1 19 15.65 19 15.1C19 14.55 18.55 14.1 18 14.1C17.45 14.1 17 14.55 17 15.1C17 15.65 17.45 16.1 18 16.1ZM10 12.1C10 12.65 9.55 13.1 9 13.1C8.45 13.1 8 12.65 8 12.1C8 11.55 8.45 11.1 9 11.1C9.55 11.1 10 11.55 10 12.1ZM18 13.1C18.55 13.1 19 12.65 19 12.1C19 11.55 18.55 11.1 18 11.1C17.45 11.1 17 11.55 17 12.1C17 12.65 17.45 13.1 18 13.1ZM10 9.1C10 9.65 9.55 10.1 9 10.1C8.45 10.1 8 9.65 8 9.1C8 8.55 8.45 8.1 9 8.1C9.55 8.1 10 8.55 10 9.1ZM18 10.1C18.55 10.1 19 9.65 19 9.1C19 8.55 18.55 8.1 18 8.1C17.45 8.1 17 8.55 17 9.1C17 9.65 17.45 10.1 18 10.1Z" fill="#383838"/>
</svg>
