<svg width="24" height="24" viewBox="0 0 24 24" fill="none" xmlns="http://www.w3.org/2000/svg">
<path fill-rule="evenodd" clip-rule="evenodd" d="M2 7C2 5.34315 3.34315 4 5 4H19C20.6569 4 22 5.34315 22 7V15.5C22 16.8062 21.1652 17.9175 20 18.3293V19C20 19.5523 19.5523 20 19 20C18.4477 20 18 19.5523 18 19V18.5H6V19C6 19.5523 5.55228 20 5 20C4.44772 20 4 19.5523 4 19V18.3293C2.83481 17.9175 2 16.8062 2 15.5V7ZM5 6C4.44772 6 4 6.44772 4 7V15.5C4 16.0523 4.44772 16.5 5 16.5H19C19.5523 16.5 20 16.0523 20 15.5V7C20 6.44772 19.5523 6 19 6H5ZM18.625 13.9375C18.625 14.4898 18.1773 14.9375 17.625 14.9375C17.0727 14.9375 16.625 14.4898 16.625 13.9375C16.625 13.3852 17.0727 12.9375 17.625 12.9375C18.1773 12.9375 18.625 13.3852 18.625 13.9375ZM17.625 12.1875C18.1773 12.1875 18.625 11.7398 18.625 11.1875C18.625 10.6352 18.1773 10.1875 17.625 10.1875C17.0727 10.1875 16.625 10.6352 16.625 11.1875C16.625 11.7398 17.0727 12.1875 17.625 12.1875ZM19.375 8C19.375 8.55228 18.9273 9 18.375 9H16.875C16.3227 9 15.875 8.55228 15.875 8C15.875 7.44772 16.3227 7 16.875 7H18.375C18.9273 7 19.375 7.44772 19.375 8ZM7 7C5.89543 7 5 7.89543 5 9V13.375C5 14.4796 5.89543 15.375 7 15.375H13.375C14.4796 15.375 15.375 14.4796 15.375 13.375V9C15.375 7.89543 14.4796 7 13.375 7H7ZM7 9H13.375V13.375H7V9Z" fill="#383838"/>
</svg>
