<svg width="24" height="24" viewBox="0 0 24 24" fill="none" xmlns="http://www.w3.org/2000/svg">
<path fill-rule="evenodd" clip-rule="evenodd" d="M4 5.84375C4 5.37776 4.37776 5 4.84375 5C5.30974 5 5.6875 5.37776 5.6875 5.84375C5.6875 6.30974 5.30974 6.6875 4.84375 6.6875C4.37776 6.6875 4 6.30974 4 5.84375ZM4.84375 3C3.27319 3 2 4.27319 2 5.84375C2 7.41431 3.27319 8.6875 4.84375 8.6875C6.41431 8.6875 7.6875 7.41431 7.6875 5.84375C7.6875 4.27319 6.41431 3 4.84375 3ZM19.5021 8.2295L18.4602 8.50866C18.0489 7.72912 17.4346 7.04248 16.8164 6.49244C17.99 6.74913 18.948 7.38588 19.5021 8.2295ZM15.5725 7.72904C16.0267 8.12255 16.4189 8.54917 16.7054 8.97888L12.9563 9.98343C12.9895 9.46807 13.1159 8.9025 13.3126 8.33459C13.5357 7.69009 13.8233 7.11666 14.0854 6.69915C14.5211 6.92969 15.057 7.28247 15.5725 7.72904ZM11.617 7.8856C11.3566 8.67108 11.1679 9.57289 11.2015 10.4536L10.1596 10.7328C10.2176 9.72517 10.7289 8.69472 11.617 7.8856ZM13.5367 4.65152C9.97487 5.60593 7.42835 8.9006 8.32818 12.2588C8.47112 12.7923 9.01946 13.1089 9.55293 12.9659L14.2165 11.7163L15.7865 17.0994C14.6031 17.2841 13.4578 17.6967 12.5672 18.0823C11.9574 18.3463 11.4398 18.6098 11.0736 18.8079C10.8901 18.9071 10.7436 18.9904 10.6415 19.0498C10.5904 19.0796 10.5504 19.1034 10.5223 19.1202L10.4746 19.1492C10.0047 19.4394 9.85899 20.0555 10.1492 20.5254C10.4393 20.9952 11.0553 21.141 11.5252 20.851L11.5296 20.8483L11.5519 20.8348C11.5725 20.8224 11.6048 20.8033 11.6476 20.7783C11.7334 20.7284 11.8616 20.6554 12.0248 20.5671C12.3521 20.3902 12.8167 20.1537 13.3618 19.9177C14.4775 19.4346 15.8261 19 17 19C18.1213 19 18.9134 19.4013 19.4287 19.7948C19.6895 19.9939 19.8796 20.1918 20.0012 20.3349C20.0617 20.4061 20.1042 20.4626 20.1291 20.4972C20.1415 20.5145 20.1494 20.5262 20.1529 20.5315L20.1543 20.5336C20.4468 20.9975 21.0594 21.1395 21.5265 20.8502C21.9961 20.5594 22.141 19.943 21.8502 19.4735L21.8497 19.4726C21.8394 19.4561 21.8288 19.4398 21.818 19.4236C21.802 19.3995 21.7806 19.3683 21.7537 19.3309C21.7001 19.2562 21.6243 19.1564 21.5255 19.0401C21.3286 18.8082 21.0364 18.5061 20.6424 18.2052C19.9935 17.7097 19.0685 17.2194 17.8573 17.0566L16.1489 11.1985L21.144 9.86009C21.6775 9.71715 21.9941 9.16881 21.8511 8.63535C20.9513 5.27713 17.0986 3.69712 13.5367 4.65152ZM6.20572 18.0975C6.55444 17.8491 7.13248 17.4375 8 17.4375C8.55229 17.4375 9 17.8852 9 18.4375C9 18.9898 8.55228 19.4375 8 19.4375C7.80535 19.4375 7.68861 19.4975 7.32892 19.7529L7.29428 19.7775C6.94556 20.0259 6.36752 20.4375 5.5 20.4375C4.63248 20.4375 4.05444 20.0259 3.70572 19.7775L3.67108 19.7529C3.31139 19.4975 3.19465 19.4375 3 19.4375C2.44772 19.4375 2 18.9898 2 18.4375C2 17.8852 2.44772 17.4375 3 17.4375C3.86752 17.4375 4.44556 17.8491 4.79428 18.0975L4.82892 18.1221C5.18861 18.3775 5.30535 18.4375 5.5 18.4375C5.69465 18.4375 5.81139 18.3775 6.17108 18.1221L6.20572 18.0975ZM11.2057 14.66C11.5544 14.4116 12.1325 14 13 14C13.5523 14 14 14.4477 14 15C14 15.5523 13.5523 16 13 16C12.8054 16 12.6886 16.06 12.3289 16.3154L12.2943 16.34C11.9456 16.5884 11.3675 17 10.5 17C9.63248 17 9.05444 16.5884 8.70572 16.34L8.67108 16.3154C8.31139 16.06 8.19465 16 8 16C7.80535 16 7.68861 16.06 7.32892 16.3154L7.29428 16.34C6.94556 16.5884 6.36752 17 5.5 17C4.63248 17 4.05444 16.5884 3.70572 16.34L3.67108 16.3154C3.31139 16.06 3.19465 16 3 16C2.44771 16 2 15.5523 2 15C2 14.4477 2.44772 14 3 14C3.86752 14 4.44556 14.4116 4.79428 14.66L4.82892 14.6846C5.18861 14.94 5.30535 15 5.5 15C5.69465 15 5.81139 14.94 6.17108 14.6846L6.20572 14.66C6.55444 14.4116 7.13248 14 8 14C8.86752 14 9.44556 14.4116 9.79428 14.66L9.82892 14.6846C10.1886 14.94 10.3054 15 10.5 15C10.6946 15 10.8114 14.94 11.1711 14.6846L11.2057 14.66Z" fill="#383838"/>
</svg>
