<svg width="24" height="24" viewBox="0 0 24 24" fill="none" xmlns="http://www.w3.org/2000/svg">
<path fill-rule="evenodd" clip-rule="evenodd" d="M6 3.12109H18C19.66 3.12109 21 4.46109 21 6.12109V18.1211C21 19.7811 19.66 21.1211 18 21.1211H6C4.34 21.1211 3 19.7811 3 18.1211V6.12109C3 4.46109 4.34 3.12109 6 3.12109ZM6 5.12109C5.45 5.12109 5 5.57109 5 6.12109V9.12109H19V6.12109C19 5.57109 18.55 5.12109 18 5.12109H6ZM5 18.1211V11.1211H19V18.1211C19 18.6711 18.55 19.1211 18 19.1211H6C5.45 19.1211 5 18.6711 5 18.1211ZM13 8.12109C13.55 8.12109 14 7.67109 14 7.12109C14 6.57109 13.55 6.12109 13 6.12109C12.45 6.12109 12 6.57109 12 7.12109C12 7.67109 12.45 8.12109 13 8.12109ZM11 7.12109C11 7.67109 10.55 8.12109 10 8.12109C9.45 8.12109 9 7.67109 9 7.12109C9 6.57109 9.45 6.12109 10 6.12109C10.55 6.12109 11 6.57109 11 7.12109ZM7 8.12109C7.55 8.12109 8 7.67109 8 7.12109C8 6.57109 7.55 6.12109 7 6.12109C6.45 6.12109 6 6.57109 6 7.12109C6 7.67109 6.45 8.12109 7 8.12109Z" fill="#383838"/>
</svg>
