<svg width="24" height="24" viewBox="0 0 24 24" fill="none" xmlns="http://www.w3.org/2000/svg">
<path fill-rule="evenodd" clip-rule="evenodd" d="M20.5 12.2502H17V11.6045L18.63 10.7742C19.81 10.1694 20.46 8.84717 20.25 7.51463L19.99 5.93609C19.9 5.38258 19.38 5.00332 18.84 5.09557C18.3 5.18783 17.93 5.72084 18.02 6.27435L18.28 7.85289C18.35 8.29365 18.13 8.73441 17.74 8.93942L16.94 9.34943C16.7 7.88364 15.85 6.63311 14.67 5.86434C15.19 5.23908 15.5 4.42931 15.5 3.53754V3.02502C15.5 2.46126 15.05 2 14.5 2C13.95 2 13.5 2.46126 13.5 3.02502V3.53754C13.5 4.38831 12.83 5.07507 12 5.07507C11.17 5.07507 10.5 4.38831 10.5 3.53754V3.02502C10.5 2.46126 10.05 2 9.5 2C8.95 2 8.5 2.46126 8.5 3.02502V3.53754C8.5 4.42931 8.81 5.23908 9.33 5.86434C8.15 6.62286 7.3 7.88364 7.06 9.34943L6.26 8.93942C5.87 8.73441 5.65 8.29365 5.72 7.85289L5.98 6.27435C6.07 5.72084 5.7 5.18783 5.16 5.09557C4.62 5.00332 4.1 5.38258 4.01 5.93609L3.75 7.51463C3.53 8.84717 4.19 10.1694 5.37 10.7742L7 11.6045V12.2502H3.5C2.95 12.2502 2.5 12.7115 2.5 13.2753C2.5 13.839 2.95 14.3003 3.5 14.3003H7V14.9461L5.74 15.5918C4.32 16.3196 3.7 18.0621 4.32 19.5587L5.08 21.373C5.3 21.8957 5.89 22.1315 6.39 21.9162C6.9 21.6907 7.13 21.086 6.92 20.5735L6.16 18.7592C5.95 18.2569 6.16 17.6829 6.63 17.4369L7.3 17.0986C8 19.0667 9.84 20.4607 12 20.4607C14.16 20.4607 16 19.0564 16.7 17.0986L17.37 17.4369C17.84 17.6829 18.05 18.2569 17.84 18.7592L17.08 20.5735C16.86 21.0962 17.1 21.701 17.61 21.9162C18.12 22.1417 18.71 21.8957 18.92 21.373L19.68 19.5587C20.31 18.0621 19.68 16.3298 18.26 15.5918L17 14.9461V14.3003H20.5C21.05 14.3003 21.5 13.839 21.5 13.2753C21.5 12.7115 21.05 12.2502 20.5 12.2502ZM11 18.2261C9.83 17.8059 9 16.6681 9 15.3253V11.7377H11V18.2261ZM9.04 9.68769C9.28 8.23215 10.51 7.12512 12 7.12512C13.49 7.12512 14.72 8.23215 14.96 9.68769H9.04ZM15 15.3253C15 16.6681 14.17 17.8059 13 18.2261V11.7377H15V15.3253Z" fill="#383838"/>
</svg>
