<svg width="24" height="24" viewBox="0 0 24 24" fill="none" xmlns="http://www.w3.org/2000/svg">
<path fill-rule="evenodd" clip-rule="evenodd" d="M10 5C10 3.34315 11.3431 2 13 2H19C20.6569 2 22 3.34315 22 5V11C22 12.6569 20.6569 14 19 14H18V15C18 16.6569 16.6569 18 15 18H14V19C14 20.6569 12.6569 22 11 22H9.5C8.94772 22 8.5 21.5523 8.5 21C8.5 20.4477 8.94772 20 9.5 20H11C11.5523 20 12 19.5523 12 19V13C12 12.4477 11.5523 12 11 12H5C4.44772 12 4 12.4477 4 13V14.5C4 15.0523 3.55228 15.5 3 15.5C2.44772 15.5 2 15.0523 2 14.5V13C2 11.3431 3.34315 10 5 10H6V9C6 7.34315 7.34315 6 9 6H10V5ZM8 10H11C12.6569 10 14 11.3431 14 13V16H15C15.5523 16 16 15.5523 16 15V9C16 8.44772 15.5523 8 15 8H9C8.44772 8 8 8.44772 8 9V10ZM19 12H18V9C18 7.34315 16.6569 6 15 6H12V5C12 4.44772 12.4477 4 13 4H19C19.5523 4 20 4.44772 20 5V11C20 11.5523 19.5523 12 19 12ZM5.5 15C5.5 14.4477 5.94772 14 6.5 14H8.99998C9.55227 14 9.99998 14.4477 9.99998 15V17.5C9.99998 18.0523 9.55227 18.5 8.99998 18.5C8.45943 18.5 8.01904 18.0711 8.00059 17.535L5.32847 20.2071C4.93795 20.5977 4.30478 20.5977 3.91426 20.2071C3.52374 19.8166 3.52374 19.1834 3.91426 18.7929L6.7072 16H6.5C5.94772 16 5.5 15.5523 5.5 15Z" fill="#383838"/>
</svg>
