<svg width="24" height="24" viewBox="0 0 24 24" fill="none" xmlns="http://www.w3.org/2000/svg">
<path fill-rule="evenodd" clip-rule="evenodd" d="M15.5582 3.00059C15.8834 2.98945 16.1938 3.13725 16.39 3.3968L17.5487 4.92891C18.3494 5.07266 18.9118 5.52517 19.2645 5.94491C19.3986 6.10449 19.5059 6.26247 19.5899 6.40345C20.62 6.75679 21.1311 7.90139 20.968 8.87162C20.7917 9.92089 19.984 10.6759 18.755 10.9753C18.7833 11.1621 18.8055 11.3565 18.8208 11.5528C18.8737 12.235 18.8553 13.1044 18.5889 13.779C18.4007 14.2556 18.1079 15.3344 18.015 16.509C17.9387 17.4746 18.0102 18.3532 18.2629 19H18.5646C19.1169 19 19.5646 19.4477 19.5646 20C19.5646 20.5523 19.1169 21 18.5646 21H17.6588C17.3245 21 17.0123 20.833 16.8268 20.5548C16.0061 19.3243 15.9164 17.6775 16.0213 16.3513C16.129 14.9891 16.4639 13.715 16.7286 13.0445C16.8246 12.8015 16.873 12.3032 16.8268 11.7075C16.8052 11.4301 16.766 11.1684 16.7188 10.955C16.6952 10.8486 16.6712 10.761 16.6492 10.6937C16.6258 10.6225 16.6108 10.593 16.6108 10.593C16.4433 10.2831 16.4513 9.90799 16.6317 9.60547C16.8121 9.30295 17.1383 9.11765 17.4906 9.11765C18.1873 9.11765 18.5715 8.96892 18.763 8.8423C18.9413 8.72442 18.9841 8.60895 18.9957 8.54015C19.0105 8.45181 18.9852 8.3709 18.951 8.32399C18.9358 8.30299 18.9241 8.29605 18.9222 8.29501L18.9212 8.29459L18.9202 8.29443C18.9197 8.29437 18.9189 8.29429 18.9179 8.29423C18.9169 8.29417 18.9157 8.29412 18.9141 8.29412C18.4885 8.29412 18.11 8.02478 17.97 7.62372C17.9693 7.6217 17.9676 7.61749 17.9651 7.61134C17.9582 7.59429 17.9449 7.56354 17.9248 7.52373C17.8836 7.44191 17.8201 7.33477 17.7333 7.23157C17.5665 7.03302 17.3501 6.88235 17.016 6.88235C16.7027 6.88235 16.4075 6.73548 16.2184 6.48555L15.6519 5.73645L15.1988 6.42958C15.1536 6.4986 15.1001 6.56178 15.0395 6.61767C14.5102 7.10554 13.9862 7.85874 13.9006 9.01501C13.8676 9.46009 13.5437 9.82945 13.1068 9.92026C11.8094 10.1899 10.279 11.4906 9.49434 13.358C8.78462 15.0469 8.73937 17.0818 10.019 19H14.4063C14.9585 19 15.4063 19.4477 15.4063 20C15.4063 20.5523 14.9585 21 14.4063 21H9.50653C9.42029 21 9.33541 20.9889 9.25373 20.9675C9.1727 20.9887 9.08767 21 9 21H6.68736C5.94152 21 5.3163 20.9161 4.78222 20.6673C4.22024 20.4054 3.87026 20.0129 3.59283 19.6251C3.55228 19.5684 3.51777 19.5076 3.48986 19.4438C2.76679 17.7894 2.92141 16.0902 3.45354 14.4951C3.98046 12.9157 4.90659 11.3499 5.84685 9.89125C6.23071 9.29578 6.31352 8.86925 6.30299 8.61304C6.29305 8.37096 6.20091 8.2302 6.10084 8.145C5.87247 7.95055 5.44418 7.92052 5.13299 8.24982C4.75366 8.65122 4.12075 8.66912 3.71934 8.28978C3.31794 7.91045 3.30004 7.27754 3.67938 6.87613C4.72431 5.77039 6.36168 5.74035 7.3974 6.62219C7.92937 7.07513 8.26888 7.74158 8.30131 8.53094C8.33316 9.30616 8.06907 10.1353 7.52786 10.9749C6.59813 12.4171 5.79252 13.8039 5.35075 15.128C4.92766 16.3962 4.86674 17.5207 5.28148 18.5454C5.4243 18.7319 5.5194 18.8043 5.62696 18.8544C5.77723 18.9244 6.06449 19 6.68736 19H7.72806C6.69225 16.7838 6.84996 14.4883 7.65051 12.5832C8.51203 10.533 10.1692 8.82444 11.9994 8.16171C12.2549 6.841 12.9139 5.88756 13.5895 5.23619L14.7555 3.45278C14.9335 3.18041 15.233 3.01172 15.5582 3.00059ZM12.5588 14.6935C12.2907 14.6449 11.9522 14.7218 11.6934 15.204C11.4322 15.6906 10.8259 15.8733 10.3393 15.6121C9.85274 15.3508 9.67004 14.7446 9.93127 14.258C10.5913 13.0285 11.7757 12.5192 12.9152 12.7255C14.0038 12.9226 14.9501 13.7549 15.2797 14.9443C15.2879 14.9738 15.2947 15.0037 15.3002 15.0339C15.4497 15.8631 15.4162 16.5732 15.2092 17.2535C15.0483 17.7818 14.4897 18.0798 13.9613 17.9189C13.433 17.7581 13.135 17.1994 13.2959 16.6711C13.3951 16.3451 13.431 15.9731 13.3406 15.4384C13.2038 14.9997 12.8685 14.7496 12.5588 14.6935Z" fill="#383838"/>
</svg>
