<svg width="24" height="24" viewBox="0 0 24 24" fill="none" xmlns="http://www.w3.org/2000/svg">
<path fill-rule="evenodd" clip-rule="evenodd" d="M12 2C12.55 2 13 2.45 13 3V6.26C13.97 6.33 14.75 7.09 14.84 8.07L15.26 12.73C15.4 14.24 14.4 15.57 12.99 15.91C12.99 15.94 12.99 15.97 12.99 16V17H13.99C15.65 17 16.99 18.34 16.99 20C17.54 20 17.99 20.45 17.99 21C17.99 21.55 17.54 22 16.99 22H7C6.45 22 6 21.55 6 21C6 20.45 6.45 20 7 20C7 18.34 8.34 17 10 17H11V16C11 16 11 15.94 11 15.91C9.6 15.56 8.6 14.23 8.73 12.73L9.15 8.07C9.24 7.09 10.02 6.33 10.99 6.26V3C10.99 2.45 11.44 2 11.99 2H12ZM10 19C9.45 19 9 19.45 9 20H15C15 19.45 14.55 19 14 19H10ZM11.15 8.25H12.84L13.26 12.91C13.31 13.5 12.85 14 12.26 14H11.71C11.12 14 10.66 13.5 10.71 12.91L11.13 8.25H11.15Z" fill="#383838"/>
</svg>
