<svg width="24" height="24" viewBox="0 0 24 24" fill="none" xmlns="http://www.w3.org/2000/svg">
<path d="M21.41 19.8735L20.75 13.7535C20.69 13.1935 20.22 12.7835 19.66 12.7835H19.25V9.03352C19.25 9.03352 19.23 8.97352 19.23 8.94352L20.51 9.65352C20.66 9.74352 20.83 9.78352 20.99 9.78352C21.34 9.78352 21.68 9.59352 21.87 9.27352C22.14 8.79352 21.96 8.18352 21.48 7.91352L12.97 3.17352C12.36 2.83352 11.64 2.83352 11.03 3.17352L2.51 7.90352C2.03 8.17352 1.85 8.78352 2.12 9.26352C2.39 9.74352 3 9.92352 3.48 9.65352L4.76 8.94352C4.76 8.94352 4.74 9.00352 4.74 9.03352V12.7835H4.33C3.77 12.7835 3.3 13.2035 3.24 13.7635L2.59 19.8735C2.24 20.0335 2 20.3735 2 20.7835C2 21.3335 2.45 21.7835 3 21.7835H21C21.55 21.7835 22 21.3335 22 20.7835C22 20.3735 21.76 20.0335 21.41 19.8735ZM12 4.92352L13.22 5.60352L12 7.31352L10.78 5.60352L12 4.92352ZM6 19.7835H4.61L5.15 14.7835H6V19.7835ZM9.02 6.58352L10.06 8.03352H6.41L9.02 6.58352ZM13 19.7835H11V16.2835H13V19.7835ZM17.25 12.7835H17.1C16.49 12.7835 16 13.2735 16 13.8835V19.7835H15V16.2835C15 15.1835 14.1 14.2835 13 14.2835H11C9.9 14.2835 9 15.1835 9 16.2835V19.7835H8V13.8835C8 13.2735 7.51 12.7835 6.9 12.7835H6.75V10.0335H17.25V12.7835ZM13.94 8.03352L14.98 6.58352L17.59 8.03352H13.94ZM18 19.7835V14.7835H18.85L19.39 19.7835H18ZM12 13.0335C12.55 13.0335 13 12.5835 13 12.0335C13 11.4835 12.55 11.0335 12 11.0335C11.45 11.0335 11 11.4835 11 12.0335C11 12.5835 11.45 13.0335 12 13.0335ZM9 13.0335C9.55 13.0335 10 12.5835 10 12.0335C10 11.4835 9.55 11.0335 9 11.0335C8.45 11.0335 8 11.4835 8 12.0335C8 12.5835 8.45 13.0335 9 13.0335ZM15 13.0335C15.55 13.0335 16 12.5835 16 12.0335C16 11.4835 15.55 11.0335 15 11.0335C14.45 11.0335 14 11.4835 14 12.0335C14 12.5835 14.45 13.0335 15 13.0335Z" fill="#383838"/>
</svg>
