<svg width="24" height="24" viewBox="0 0 24 24" fill="none" xmlns="http://www.w3.org/2000/svg">
<path d="M19 19V5C19 3.35 17.65 2 16 2H13C11.35 2 10 3.35 10 5V5.18C9.69 5.07 9.35 5 9 5H6C4.35 5 3 6.35 3 8V19C2.45 19 2 19.45 2 20C2 20.55 2.45 21 3 21H19C19.55 21 20 20.55 20 20C20 19.45 19.55 19 19 19ZM5 19V8C5 7.45 5.45 7 6 7H9C9.55 7 10 7.45 10 8V19H5ZM12 19V5C12 4.45 12.45 4 13 4H16C16.55 4 17 4.45 17 5V19H12ZM9 10C9 10.55 8.55 11 8 11H7C6.45 11 6 10.55 6 10C6 9.45 6.45 9 7 9H8C8.55 9 9 9.45 9 10ZM9 13C9 13.55 8.55 14 8 14H7C6.45 14 6 13.55 6 13C6 12.45 6.45 12 7 12H8C8.55 12 9 12.45 9 13ZM9 16C9 16.55 8.55 17 8 17H7C6.45 17 6 16.55 6 16C6 15.45 6.45 15 7 15H8C8.55 15 9 15.45 9 16ZM16 10C16 10.55 15.55 11 15 11H14C13.45 11 13 10.55 13 10C13 9.45 13.45 9 14 9H15C15.55 9 16 9.45 16 10ZM16 7C16 7.55 15.55 8 15 8H14C13.45 8 13 7.55 13 7C13 6.45 13.45 6 14 6H15C15.55 6 16 6.45 16 7ZM16 13C16 13.55 15.55 14 15 14H14C13.45 14 13 13.55 13 13C13 12.45 13.45 12 14 12H15C15.55 12 16 12.45 16 13ZM16 16C16 16.55 15.55 17 15 17H14C13.45 17 13 16.55 13 16C13 15.45 13.45 15 14 15H15C15.55 15 16 15.45 16 16ZM22 14.93V17.06C22 17.46 21.55 17.7 21.22 17.48L19.62 16.41C19.32 16.21 19.32 15.78 19.62 15.58L21.22 14.51C21.55 14.29 22 14.53 22 14.93Z" fill="#383838"/>
</svg>
