<svg width="24" height="24" viewBox="0 0 24 24" fill="none" xmlns="http://www.w3.org/2000/svg">
<path d="M10.8098 9.16006C10.8998 8.70006 10.9998 8.25006 11.1098 7.81006C10.9998 8.24006 10.9098 8.70006 10.8098 9.16006Z" fill="#383838"/>
<path d="M18.9998 18.7701C19.5798 18.5801 20.0398 18.2901 20.3798 17.9001C20.7898 17.4101 20.9998 16.7701 20.9998 15.9901C20.9998 13.7001 20.5198 10.1401 19.8298 7.33006C19.4498 5.76006 19.0098 4.46006 18.5598 3.55006C17.7098 1.48006 16.2898 1.48006 15.4498 3.55006C15.1298 4.21006 14.8098 5.08006 14.5098 6.11006C14.2098 5.08006 13.8898 4.21006 13.5698 3.55006C12.7198 1.48006 11.2998 1.48006 10.4598 3.55006C10.1398 4.21006 9.81979 5.08006 9.51978 6.11006C9.21978 5.08006 8.89979 4.21006 8.57978 3.55006C7.72978 1.48006 6.30979 1.48006 5.46979 3.55006C5.01979 4.45006 4.57979 5.76006 4.19979 7.33006C3.50979 10.1401 3.02979 13.7001 3.02979 15.9901C3.02979 16.7701 3.23979 17.4101 3.64979 17.9001C3.97979 18.2901 4.43979 18.5801 5.02979 18.7701C5.37979 18.8801 5.72979 18.9401 6.02979 18.9701V19.9901H5.02979C4.47979 19.9901 4.02979 20.4401 4.02979 20.9901C4.02979 21.5401 4.47979 21.9901 5.02979 21.9901H19.0298C19.5798 21.9901 20.0298 21.5401 20.0298 20.9901C20.0298 20.4401 19.5798 19.9901 19.0298 19.9901H18.0298V18.9701C18.3298 18.9401 18.6798 18.8801 19.0298 18.7701H18.9998ZM16.9998 4.97006C17.3098 5.71006 17.6098 6.68006 17.8898 7.81006C18.5498 10.4801 18.9998 13.8401 18.9998 15.9901C18.9898 16.5301 18.8798 16.7201 18.3898 16.8701C17.6098 17.0401 16.4998 17.0501 15.6198 16.8701C15.1398 16.7701 14.9798 16.4201 15.0098 15.9901C15.3598 9.08006 16.7098 5.70006 17.0098 4.97006H16.9998ZM10.7698 9.40006C10.7898 9.32006 10.7998 9.24006 10.8198 9.16006C10.9098 8.70006 11.0098 8.25006 11.1198 7.81006C11.3998 6.67006 11.6998 5.71006 12.0098 4.97006C12.3198 5.71006 12.6198 6.68006 12.8998 7.81006C13.0098 8.24006 13.0998 8.69006 13.1998 9.15006C13.2198 9.23006 13.2298 9.32006 13.2498 9.40006C13.3298 9.79006 13.3998 10.1801 13.4698 10.5701C13.4798 10.6401 13.4898 10.7101 13.5098 10.7801C13.2098 12.6801 13.0198 14.5701 13.0198 15.9801C13.0198 16.3201 13.0698 16.6301 13.1498 16.9201C12.4598 17.0301 11.4298 17.1301 10.6398 16.8601C10.1498 16.7301 10.0098 16.4301 10.0298 15.9801C10.0298 14.2401 10.3298 11.7101 10.7998 9.39006L10.7698 9.40006ZM5.14979 16.6001C5.02979 16.4601 4.99979 16.1901 4.99979 15.9801C4.99979 13.8301 5.45978 10.4701 6.10979 7.80006C6.38979 6.66006 6.68979 5.70006 6.99979 4.96006C7.30979 5.70006 7.60978 6.67006 7.88978 7.80006C8.11978 8.76006 8.31978 9.78006 8.48978 10.7801C8.18978 12.6801 7.99978 14.5701 7.99978 15.9801C7.99978 16.3201 8.04979 16.6301 8.12979 16.9201C7.07979 17.0501 6.07979 17.0001 5.61979 16.8601C5.39979 16.8001 5.23979 16.7001 5.15979 16.6001H5.14979ZM7.99978 19.9901V18.9701C8.29979 18.9401 8.64979 18.8801 8.99978 18.7701C9.18979 18.7101 9.33979 18.6201 9.49978 18.5401C9.65978 18.6201 9.80978 18.7101 9.99978 18.7701C10.3498 18.8801 10.6998 18.9401 10.9998 18.9701V19.9901H7.99978ZM12.9998 19.9901V18.9701C13.2998 18.9401 13.6498 18.8801 13.9998 18.7701C14.1898 18.7101 14.3398 18.6201 14.4998 18.5401C14.6598 18.6201 14.8098 18.7101 14.9998 18.7701C15.3498 18.8801 15.6998 18.9401 15.9998 18.9701V19.9901H12.9998Z" fill="#383838"/>
</svg>
