<svg width="24" height="24" viewBox="0 0 24 24" fill="none" xmlns="http://www.w3.org/2000/svg">
<path fill-rule="evenodd" clip-rule="evenodd" d="M17.17 12.87C19.74 12.42 21.69 10.18 21.69 7.48001C21.69 7.25001 21.68 7.02001 21.65 6.80001C21.55 6.01001 20.99 5.48001 20.33 5.33001C19.71 5.19001 19.03 5.38001 18.55 5.86001L17.78 6.63001C17.65 6.76001 17.44 6.76001 17.31 6.63001C17.18 6.50001 17.18 6.29001 17.31 6.16001L18.24 5.23001C18.7 4.77001 18.9 4.13001 18.79 3.53001C18.68 2.90001 18.22 2.33001 17.48 2.15001C17.08 2.06001 16.66 2.01001 16.22 2.01001C13.31 2.01001 10.93 4.28001 10.76 7.14001L10.49 6.90001C9.76 6.25001 8.67 6.23001 7.92 6.82001L6.08 4.98001C6.18 4.79001 6.22 4.57001 6.18 4.35001C6.13 4.03001 5.93 3.76001 5.64 3.62001L3.63 2.61001C3.25 2.42001 2.78 2.49001 2.48 2.80001C2.18 3.10001 2.1 3.57001 2.29 3.95001L3.29 5.95001C3.43 6.24001 3.71 6.44001 4.02 6.49001C4.24 6.53001 4.46 6.49001 4.65 6.39001L6.51 8.25001C5.88 9.02001 5.91 10.15 6.6 10.88L7.28 11.61L3 15.9C1.67 17.23 1.67 19.38 3 20.71C4.33 22.04 6.48 22.04 7.81 20.71L11.96 16.56L15.64 20.43C16.92 21.79 19.07 21.82 20.39 20.5C21.71 19.18 21.67 16.95 20.25 15.69L17.17 12.87ZM9.15 8.39001L9.87 9.03001L8.71 10.19L8.07 9.51001L9.15 8.39001ZM6.39 19.3C5.84 19.85 4.96 19.85 4.41 19.3C3.86 18.75 3.86 17.87 4.41 17.32L12.94 8.78001L12.82 8.24001C12.76 7.99001 12.73 7.74001 12.73 7.47001C12.73 5.55001 14.29 4.00001 16.2 4.00001C16.33 4.00001 16.47 4.00001 16.59 4.02001L15.87 4.74001C14.96 5.65001 14.96 7.13001 15.87 8.04001C16.78 8.95001 18.26 8.95001 19.17 8.04001L19.66 7.55001C19.62 9.43001 18.08 10.95 16.19 10.95C15.93 10.95 15.68 10.92 15.44 10.87L14.91 10.75L6.39 19.29V19.3ZM18.97 19.09C18.45 19.61 17.59 19.6 17.09 19.06L13.37 15.15L14.95 13.57L15.6 12.92L14.95 13.57L18.92 17.19C19.48 17.69 19.51 18.56 18.97 19.1V19.09Z" fill="#383838"/>
</svg>
