<svg width="24" height="24" viewBox="0 0 24 24" fill="none" xmlns="http://www.w3.org/2000/svg">
<path fill-rule="evenodd" clip-rule="evenodd" d="M21.61 12.42C21.33 11.94 20.72 11.78 20.24 12.05L20.16 12.09L17.32 7.17C16.77 6.21 15.54 5.89 14.59 6.44L9.67 9.28L6.62 4C6.26 3.39 5.6 3 4.89 3H3C2.45 3 2 3.45 2 4C2 4.55 2.45 5 3 5H4.89L10.51 14.73C9.75 15.32 9.26 16.25 9.26 17.29C9.26 19.08 10.72 20.54 12.51 20.54C14.3 20.54 15.76 19.08 15.76 17.29C15.76 17.18 15.76 17.07 15.74 16.96L19.45 14.82C19.45 14.82 19.49 14.8 19.51 14.78L21.26 13.77C21.74 13.49 21.9 12.88 21.63 12.4L21.61 12.42ZM12.49 18.55C11.8 18.55 11.24 17.99 11.24 17.3C11.24 16.61 11.8 16.05 12.49 16.05C13.18 16.05 13.74 16.61 13.74 17.3C13.74 17.99 13.18 18.55 12.49 18.55ZM14.91 15.13C14.31 14.47 13.45 14.05 12.49 14.05C12.47 14.05 12.44 14.05 12.42 14.05L10.67 11.02L12.26 10.1L12.72 10.9C13 11.38 13.61 11.54 14.09 11.27C14.57 10.99 14.73 10.38 14.46 9.9L14 9.1L15.59 8.18L18.43 13.1L14.91 15.13Z" fill="#383838"/>
</svg>
