<svg width="24" height="24" viewBox="0 0 24 24" fill="none" xmlns="http://www.w3.org/2000/svg">
<path fill-rule="evenodd" clip-rule="evenodd" d="M20.57 6.2L13.26 2.24C12.67 1.92 11.95 1.92 11.35 2.24L4.05 6.2C3.4 6.55 3 7.22 3 7.96V15.77C3 16.5 3.4 17.18 4.05 17.53L11.36 21.49C11.95 21.81 12.67 21.81 13.27 21.49L20.58 17.53C21.23 17.18 21.63 16.51 21.63 15.77V7.96C21.63 7.23 21.23 6.55 20.58 6.2H20.57ZM12.31 4L14.16 5L7.95 8.36L6.1 7.36L12.31 4ZM11.31 19.18L5 15.76V9.04L6.99 10.12V12.75C6.99 13.3 7.44 13.75 7.99 13.75C8.54 13.75 8.99 13.3 8.99 12.75V11.2L11.31 12.46V19.19V19.18ZM12.31 10.72L10.06 9.5L16.27 6.14L18.52 7.36L12.31 10.72ZM19.62 15.76L13.31 19.18V12.45L19.62 9.03V15.76Z" fill="#383838"/>
</svg>
