<svg width="24" height="24" viewBox="0 0 24 24" fill="none" xmlns="http://www.w3.org/2000/svg">
<path fill-rule="evenodd" clip-rule="evenodd" d="M17.8125 3.875C16.4168 3.875 15.1748 4.5288 14.3746 5.54417C13.7328 5.41551 13.0629 5.3476 12.375 5.3476C8.88396 5.3476 5.6531 7.1626 4.50479 9.91517C4.50181 9.91199 4.4989 9.90884 4.49606 9.90572C4.39415 9.79371 4.34556 9.67933 4.32478 9.55919C4.27667 9.28117 4.37769 8.93455 4.51722 8.70199C4.80137 8.22841 4.64781 7.61415 4.17423 7.33001C3.70065 7.04586 3.08638 7.19942 2.80224 7.673C2.50427 8.16962 2.19904 9.00424 2.35406 9.90018C2.50514 10.7734 3.06181 11.5304 4.06374 12.008C4.06291 12.0482 4.0625 12.0884 4.0625 12.1288C4.0625 14.1689 5.15125 15.9388 6.7689 17.1429L7.31829 19.3651C7.42865 19.8115 7.82922 20.1251 8.28906 20.1251H10.4609C10.9208 20.1251 11.3213 19.8115 11.4317 19.3651L11.5523 18.8774C11.8231 18.8991 12.0976 18.9101 12.375 18.9101C12.6524 18.9101 12.9269 18.8991 13.1977 18.8774L13.3183 19.3651C13.4287 19.8115 13.8292 20.1251 14.2891 20.1251H16.4609C16.9208 20.1251 17.3213 19.8115 17.4317 19.3651L17.9811 17.143C18.7371 16.5807 19.3758 15.8971 19.8433 15.1176L20.9275 14.8496C21.3739 14.7392 21.6875 14.3387 21.6875 13.8788V10.3788C21.6875 9.919 21.3739 9.51843 20.9275 9.40807L19.8433 9.14002C19.5588 8.66578 19.211 8.22714 18.8125 7.83V4.875C18.8125 4.32272 18.3648 3.875 17.8125 3.875ZM15.7091 7.14573C15.9517 6.68484 16.3402 6.31448 16.8125 6.09504V8.26322C16.8125 8.55086 16.9364 8.82458 17.1525 9.01444C17.6428 9.44532 18.0247 9.93348 18.2841 10.4528C18.4151 10.7148 18.6543 10.9063 18.9387 10.9766L19.6875 11.1617V13.096L18.9387 13.2811C18.6543 13.3514 18.4151 13.5429 18.2841 13.8049C17.925 14.5238 17.331 15.1829 16.5431 15.7107C16.3363 15.8492 16.1886 16.0599 16.1289 16.3015L15.6781 18.1251H15.0719L14.926 17.5347C14.8 17.0249 14.301 16.6995 13.7837 16.7896C13.3316 16.8683 12.8602 16.9101 12.375 16.9101C11.8898 16.9101 11.4184 16.8683 10.9663 16.7896C10.449 16.6995 9.95004 17.0249 9.824 17.5347L9.67806 18.1251H9.07194L8.6211 16.3015C8.56137 16.0599 8.41368 15.8492 8.2069 15.7107C6.83595 14.7923 6.0625 13.4928 6.0625 12.1288C6.0625 9.69449 8.65692 7.3476 12.375 7.3476C13.1433 7.3476 13.8767 7.45236 14.5537 7.64257C15.0078 7.77015 15.4893 7.56309 15.7091 7.14573ZM16.3125 12.125C16.7957 12.125 17.1875 11.7332 17.1875 11.25C17.1875 10.7668 16.7957 10.375 16.3125 10.375C15.8293 10.375 15.4375 10.7668 15.4375 11.25C15.4375 11.7332 15.8293 12.125 16.3125 12.125ZM13.7856 10.432C12.311 10.2321 10.7407 10.5383 10.1178 10.7311C9.59022 10.8944 9.03015 10.599 8.86686 10.0715C8.70357 9.54386 8.9989 8.98379 9.52649 8.8205C10.3368 8.56973 12.21 8.20009 14.0542 8.4501C14.6015 8.52429 14.985 9.02809 14.9108 9.57537C14.8366 10.1227 14.3328 10.5062 13.7856 10.432Z" fill="#383838"/>
</svg>
