<svg width="24" height="24" viewBox="0 0 24 24" fill="none" xmlns="http://www.w3.org/2000/svg">
<path fill-rule="evenodd" clip-rule="evenodd" d="M15.9274 2.91693C16.2865 2.14748 17.3806 2.14748 17.7397 2.91693L18.4299 4.39571C18.5292 4.60855 18.7003 4.77963 18.9131 4.87897L20.3919 5.56911C21.1614 5.92822 21.1614 7.02235 20.3919 7.38145L18.9131 8.0716C18.7003 8.17093 18.5292 8.34202 18.4299 8.55486L17.7397 10.0336C17.3806 10.8031 16.2865 10.8031 15.9274 10.0336L15.2373 8.55486C15.1379 8.34202 14.9668 8.17093 14.754 8.0716L13.2752 7.38145C12.5058 7.02235 12.5058 5.92822 13.2752 5.56911L14.754 4.87897C14.9668 4.77963 15.1379 4.60855 15.2373 4.39571L15.9274 2.91693ZM15.9856 6.47528C16.3224 6.25261 16.6109 5.96415 16.8336 5.62736C17.0562 5.96415 17.3447 6.25261 17.6815 6.47528C17.3447 6.69796 17.0562 6.98641 16.8336 7.3232C16.6109 6.98641 16.3224 6.69796 15.9856 6.47528Z" fill="#383838"/>
<path fill-rule="evenodd" clip-rule="evenodd" d="M15.8087 12.5635C15.6132 12.8324 15.3088 12.9752 15 12.9754L15 18.545C15 19.8547 13.9768 21 12.6138 21H6.38624C5.0233 21 4.00008 19.8547 4.00007 18.5451L4.00002 12.9754C3.69122 12.9752 3.3868 12.8324 3.19127 12.5635C2.86644 12.1169 2.96519 11.4914 3.41184 11.1666L7.73549 8.02213C8.78745 7.25707 10.2126 7.25707 11.2645 8.02213L15.5882 11.1666C16.0348 11.4914 16.1336 12.1169 15.8087 12.5635ZM6.13589 11.7038C6.17301 11.6664 6.20655 11.6267 6.23653 11.5853L8.91184 9.6396C9.26249 9.38458 9.73753 9.38458 10.0882 9.6396L12.7634 11.5852C12.7934 11.6267 12.8269 11.6663 12.8641 11.7038C12.9433 11.7838 13 11.9039 13 12.0489L13 18.545C13 18.8425 12.782 19 12.6138 19H6.38624C6.21806 19 6.00007 18.8425 6.00007 18.545L6.00001 12.0489C6.00001 11.9039 6.0567 11.7838 6.13589 11.7038Z" fill="#383838"/>
<path d="M17.9669 11.7097C18.326 10.9403 19.4201 10.9403 19.7792 11.7097L19.833 11.8249C19.9323 12.0377 20.1034 12.2088 20.3162 12.3081L20.4314 12.3619C21.2008 12.721 21.2008 13.8151 20.4314 14.1742L20.3162 14.228C20.1034 14.3273 19.9323 14.4984 19.833 14.7112L19.7792 14.8264C19.4201 15.5959 18.326 15.5959 17.9669 14.8264L17.9131 14.7112C17.8138 14.4984 17.6427 14.3273 17.4299 14.228L17.3147 14.1742C16.5452 13.8151 16.5452 12.721 17.3147 12.3619L17.4299 12.3081C17.6427 12.2088 17.8138 12.0377 17.9131 11.8249L17.9669 11.7097Z" fill="#383838"/>
</svg>
