<svg width="24" height="24" viewBox="0 0 24 24" fill="none" xmlns="http://www.w3.org/2000/svg">
<path fill-rule="evenodd" clip-rule="evenodd" d="M8.94 11.25C9.77 11.25 10.44 10.58 10.44 9.75C10.44 8.92 9.77 8.25 8.94 8.25C8.11 8.25 7.44 8.92 7.44 9.75C7.44 10.58 8.11 11.25 8.94 11.25ZM16.5 9.75C16.5 10.58 15.83 11.25 15 11.25C14.17 11.25 13.5 10.58 13.5 9.75C13.5 8.92 14.17 8.25 15 8.25C15.83 8.25 16.5 8.92 16.5 9.75ZM8 15.75C8 15.2 8.45 14.75 9 14.75H15C15.55 14.75 16 15.2 16 15.75C16 16.3 15.55 16.75 15 16.75H9C8.45 16.75 8 16.3 8 15.75ZM22 8.75H21V6.75C21 4.54 19.21 2.75 17 2.75H13.5V2C13.5 1.45 13 0.75 12 0.75C11 0.75 10.5 1.45 10.5 2V2.75H7C4.79 2.75 3 4.54 3 6.75V8.75H2C1.45 8.75 1 9.2 1 9.75V13.75C1 14.3 1.45 14.75 2 14.75H3V19.75C3 20.3 3.45 20.75 4 20.75L7 21.75C7 22.3 7.45 23.25 8 23.25H16C16.55 23.25 17 22.3 17 21.75L20 20.75C20.55 20.75 21 20.3 21 19.75V14.75H22C22.55 14.75 23 14.3 23 13.75V9.75C23 9.2 22.55 8.75 22 8.75ZM19 18.75L15 20.25H9L5 18.75V6.75C5 5.65 5.9 4.75 7 4.75H17C18.1 4.75 19 5.65 19 6.75V18.75Z" fill="#383838"/>
</svg>
