<svg width="24" height="24" viewBox="0 0 24 24" fill="none" xmlns="http://www.w3.org/2000/svg">
<path fill-rule="evenodd" clip-rule="evenodd" d="M21.23 9.17C21.19 9.12 21.14 9.07 21.09 9.03C21.04 8.99 20.99 8.95 20.93 8.92L12.21 4.12C11.91 3.95 11.54 3.95 11.24 4.12L2.52 8.94C2.2 9.11 2 9.45 2 9.81C2 10.17 2.2 10.51 2.51 10.69L4.69 11.9V17.05C4.69 17.26 4.76 17.47 4.89 17.65L5.69 17.05C5.15667 17.45 4.89 17.65 4.89 17.65L4.9 17.67C4.9 17.67 4.92 17.69 4.93 17.71C4.95 17.74 4.98 17.77 5.02 17.81C5.09 17.89 5.19 17.99 5.33 18.11C5.6 18.35 5.99 18.65 6.53 18.94C7.62 19.53 9.29 20.08 11.69 20.08C14.09 20.08 15.76 19.54 16.85 18.94C17.39 18.65 17.79 18.35 18.05 18.11C18.18 17.99 18.28 17.89 18.36 17.81C18.4 17.77 18.43 17.74 18.45 17.71C18.46 17.7 18.47 17.68 18.48 17.67H18.49V17.65C18.49 17.65 18.2233 17.45 17.69 17.05L18.49 17.65C18.62 17.48 18.69 17.27 18.69 17.05V11.94L19.46 11.52V13.35C19.46 13.9 19.91 14.35 20.46 14.35C21.01 14.35 21.46 13.9 21.46 13.35V9.82C21.46 9.58 21.38 9.35 21.23 9.18V9.17ZM5.07 9.82L11.73 6.15L16.57 8.82H12.73C12.18 8.82 11.73 9.27 11.73 9.82C11.73 10.37 12.18 10.82 12.73 10.82H16.6L11.73 13.52L5.07 9.82ZM16.7 16.64C16.54 16.78 16.28 16.98 15.91 17.18C15.13 17.6 13.79 18.07 11.7 18.07C9.61 18.07 8.27 17.6 7.49 17.18C7.12 16.98 6.86 16.78 6.7 16.64V13.01L11.25 15.54C11.55 15.71 11.92 15.71 12.22 15.54L16.7 13.05V16.64Z" fill="#383838"/>
</svg>
