<svg width="24" height="24" viewBox="0 0 24 24" fill="none" xmlns="http://www.w3.org/2000/svg">
<path fill-rule="evenodd" clip-rule="evenodd" d="M21 15.0399H12.53C12.53 14.7399 12.51 14.4299 12.5 14.1199C12.5 13.9099 12.48 13.6999 12.47 13.4899C13.03 13.0799 13.5 12.7899 13.89 12.5799C14.31 12.3599 14.57 12.2799 14.7 12.2599C14.73 12.3699 14.76 12.5699 14.76 12.8999C14.76 13.4799 15.17 13.8499 15.53 13.9599C15.89 14.0799 16.45 14.0299 16.79 13.5399C17.03 13.1999 17.38 12.7199 17.72 12.4099L17.77 12.4899C17.81 12.5599 17.85 12.6199 17.9 12.6999C18.04 12.9199 18.23 13.2199 18.52 13.4699C19.18 14.0299 20.04 14.0999 21.11 13.9499C21.66 13.8799 22.04 13.3699 21.97 12.8299C21.9 12.2799 21.39 11.8999 20.85 11.9699C20.4 12.0299 20.14 12.0299 19.99 11.9999C19.87 11.9799 19.84 11.9499 19.83 11.9499C19.83 11.9499 19.74 11.8599 19.62 11.6599C19.6 11.6199 19.57 11.5699 19.54 11.5199C19.44 11.3499 19.3 11.1099 19.14 10.8899C18.97 10.6499 18.74 10.4399 18.43 10.3199C18.12 10.1999 17.82 10.2099 17.57 10.2699C17.11 10.3699 16.73 10.6599 16.47 10.8899C16.42 10.9299 16.37 10.9799 16.33 11.0199C16.2 10.8299 16.03 10.6599 15.81 10.5299C15.51 10.3499 15.19 10.2699 14.87 10.2599C14.27 10.2499 13.63 10.4799 13 10.8099C12.82 10.9099 12.63 11.0099 12.43 11.1399C12.43 10.9099 12.43 10.6699 12.42 10.4399C13.8 9.65994 14.89 8.66994 15.59 7.24994C16.06 6.27994 16.28 5.35994 16.25 4.55994C16.23 3.76994 15.97 3.00994 15.4 2.50994C14.8 1.96994 13.99 1.86994 13.24 2.17994C12.54 2.47994 11.96 3.10994 11.52 3.93994C10.77 5.35994 10.51 7.12994 10.44 8.87994C10.44 8.98994 10.44 9.09994 10.43 9.20994C10.26 9.28994 10.08 9.35994 9.9 9.42994C9.66 9.52994 9.17 9.66994 8.68 9.78994C8.45 9.84994 8.23 9.89994 8.08 9.93994C8 9.95994 7.94 9.96994 7.9 9.97994H7.85L7.83 9.99994C7.29 10.1199 6.95 10.6599 7.08 11.1999C7.2 11.7399 7.74 12.0799 8.28 11.9499H8.3L8.35 11.9299C8.4 11.9199 8.46 11.8999 8.55 11.8799C8.71 11.8399 8.94 11.7899 9.19 11.7199C9.58 11.6199 10.07 11.4899 10.45 11.3599C10.46 11.7599 10.47 12.1499 10.49 12.5399C9.58 13.3499 8.88 14.1999 8.34 15.0299H3C2.45 15.0399 2 15.4899 2 16.0399C2 16.5899 2.45 17.0399 3 17.0399H7.27C7.06 17.5999 6.92 18.1199 6.84 18.5899C6.67 19.5799 6.9 20.5199 7.5 21.1799C8.11 21.8499 9.02 22.1299 9.94 21.9099C11.49 21.5399 12.1 20.1599 12.34 18.8499C12.44 18.2999 12.49 17.6899 12.52 17.0499H20.99C21.54 17.0499 21.99 16.5999 21.99 16.0499C21.99 15.4999 21.54 15.0499 20.99 15.0499L21 15.0399ZM13.25 4.86994C13.56 4.27994 13.85 4.07994 13.98 4.01994C14.01 4.00994 14.02 3.99994 14.03 3.99994C14.06 4.02994 14.19 4.18994 14.2 4.60994C14.21 5.01994 14.1 5.61994 13.74 6.36994C13.44 6.98994 13.02 7.50994 12.46 7.97994C12.58 6.73994 12.82 5.67994 13.25 4.86994ZM10.39 18.4799C10.19 19.5799 9.84 19.8799 9.5 19.9599C9.27 20.0099 9.1 19.9499 8.99 19.8199C8.87 19.6899 8.74 19.4099 8.82 18.9299C8.91 18.3999 9.11 17.7499 9.45 17.0399H10.53C10.51 17.5699 10.46 18.0599 10.39 18.4799ZM5.71 13.7499C5.32 14.1399 4.69 14.1399 4.3 13.7499L4.01 13.4599L3.72 13.7499C3.33 14.1399 2.7 14.1399 2.31 13.7499C1.92 13.3599 1.92 12.7299 2.31 12.3399L2.6 12.0499L2.31 11.7599C1.92 11.3699 1.92 10.7399 2.31 10.3499C2.7 9.95994 3.33 9.95994 3.72 10.3499L4.01 10.6399L4.3 10.3499C4.69 9.95994 5.32 9.95994 5.71 10.3499C6.1 10.7399 6.1 11.3699 5.71 11.7599L5.42 12.0499L5.71 12.3399C6.1 12.7299 6.1 13.3599 5.71 13.7499Z" fill="#383838"/>
</svg>
