<svg width="24" height="24" viewBox="0 0 24 24" fill="none" xmlns="http://www.w3.org/2000/svg">
<path fill-rule="evenodd" clip-rule="evenodd" d="M18.6864 8.19695C18.5878 8.13488 18.4793 8.09349 18.3708 8.0728V6.56236C18.3708 5.80714 17.9763 5.10365 17.3353 4.74156L12.9467 2.24829C12.3649 1.91724 11.6548 1.91724 11.0631 2.24829L6.67456 4.74156C6.03353 5.10365 5.63905 5.7968 5.63905 6.56236V8.0728C5.53057 8.09349 5.43195 8.13488 5.32347 8.19695C3.41026 9.38668 2 11.2075 2 13.4214C2 15.6354 3.30178 17.3113 5.09665 18.5011C6.91124 19.7011 9.34714 20.4046 11.9901 20.4046C12.9369 20.4046 13.854 20.3115 14.7219 20.146L14.5641 20.3839C14.2584 20.8598 14.3866 21.5013 14.8402 21.822C15.2939 22.1427 15.9053 22.0185 16.211 21.5426L17.7101 19.1839C17.858 18.9563 17.9073 18.6666 17.8481 18.3976C17.789 18.1286 17.6312 17.8907 17.4142 17.7355L15.1262 16.194C14.6627 15.8837 14.0513 16.0181 13.7653 16.5044C13.4694 16.9803 13.6075 17.6217 14.071 17.9321L14.3373 18.1079C13.5976 18.2528 12.8087 18.3252 11.9901 18.3252C9.66272 18.3252 7.59172 17.7045 6.14201 16.7423C4.68245 15.7802 3.96252 14.5698 3.96252 13.4111C3.96252 12.3972 4.51479 11.3523 5.61933 10.4626V11.4454C5.61933 12.2007 6.01381 12.9041 6.65483 13.2662L11.0533 15.7595C11.6351 16.0906 12.3452 16.0906 12.9369 15.7595L17.3353 13.2662C17.9763 12.9041 18.3708 12.211 18.3708 11.4454V10.4626C19.4852 11.3523 20.0276 12.4076 20.0276 13.4214C20.0276 14.1973 19.7219 14.9732 19.0809 15.6974C18.716 16.1216 18.7357 16.7734 19.14 17.1561C19.5444 17.5389 20.1657 17.5182 20.5306 17.0941C21.428 16.0699 22 14.8181 22 13.4214C22 11.2075 20.5897 9.38668 18.6765 8.19695H18.6864ZM11.0237 13.38L7.61144 11.4454V7.67968L11.0237 9.61428V13.38ZM12.0099 7.82451L8.69625 5.94163L12.0099 4.05875L15.3235 5.94163L12.0099 7.82451ZM16.4083 11.4454L12.9961 13.38V9.61428L16.4083 7.67968V11.4454Z" fill="#383838"/>
</svg>
