<svg width="24" height="24" viewBox="0 0 24 24" fill="none" xmlns="http://www.w3.org/2000/svg">
<path d="M21.71 16.2899L16.91 11.4999L20.29 8.11994C20.8518 7.55744 21.1674 6.79494 21.1674 5.99994C21.1674 5.20494 20.8518 4.44244 20.29 3.87994L20.12 3.70994C19.5575 3.14814 18.795 2.83258 18 2.83258C17.205 2.83258 16.4425 3.14814 15.88 3.70994L12.5 7.08994L7.71 2.28994C7.61704 2.19621 7.50644 2.12182 7.38458 2.07105C7.26272 2.02028 7.13201 1.99414 7 1.99414C6.86799 1.99414 6.73728 2.02028 6.61542 2.07105C6.49356 2.12182 6.38296 2.19621 6.29 2.28994L2.29 6.28994C2.19627 6.3829 2.12188 6.4935 2.07111 6.61536C2.02034 6.73722 1.9942 6.86793 1.9942 6.99994C1.9942 7.13195 2.02034 7.26266 2.07111 7.38452C2.12188 7.50637 2.19627 7.61698 2.29 7.70994L7.09 12.4999L4.29 15.2899C4.16209 15.42 4.07218 15.5825 4.03 15.7599L3.03 19.7599C2.98239 19.929 2.98014 20.1076 3.02347 20.2778C3.0668 20.448 3.15419 20.6037 3.27684 20.7294C3.39949 20.8551 3.55308 20.9463 3.72216 20.9938C3.89124 21.0413 4.06984 21.0434 4.24 20.9999L8.24 19.9999C8.41745 19.9578 8.57998 19.8678 8.71 19.7399L11.5 16.9399L16.29 21.7399C16.383 21.8337 16.4936 21.9081 16.6154 21.9588C16.7373 22.0096 16.868 22.0357 17 22.0357C17.132 22.0357 17.2627 22.0096 17.3846 21.9588C17.5064 21.9081 17.617 21.8337 17.71 21.7399L21.71 17.7399C21.8037 17.647 21.8781 17.5364 21.9289 17.4145C21.9797 17.2927 22.0058 17.162 22.0058 17.0299C22.0058 16.8979 21.9797 16.7672 21.9289 16.6454C21.8781 16.5235 21.8037 16.4129 21.71 16.3199V16.2899ZM17.29 5.11994C17.383 5.02621 17.4936 4.95182 17.6154 4.90105C17.7373 4.85028 17.868 4.82414 18 4.82414C18.132 4.82414 18.2627 4.85028 18.3846 4.90105C18.5064 4.95182 18.617 5.02621 18.71 5.11994L18.88 5.28994C18.9737 5.3829 19.0481 5.4935 19.0989 5.61536C19.1497 5.73722 19.1758 5.86793 19.1758 5.99994C19.1758 6.13195 19.1497 6.26266 19.0989 6.38452C19.0481 6.50637 18.9737 6.61698 18.88 6.70994L18 7.58994L16.41 5.99994L17.29 5.11994ZM15 7.40994L16.59 8.99994L15.5 10.0899L13.91 8.49994L15 7.40994ZM7.49 18.0999L5.37 18.6299L5.9 16.5099L8.5 13.9099L10.09 15.4999L7.49 18.0999ZM17 19.5899L4.41 6.99994L7 4.40994L8.09 5.49994L7.29 6.28994C7.19676 6.38318 7.1228 6.49387 7.07234 6.61569C7.02188 6.73751 6.99591 6.86808 6.99591 6.99994C6.99591 7.1318 7.02188 7.26237 7.07234 7.38419C7.1228 7.50601 7.19676 7.6167 7.29 7.70994C7.38324 7.80318 7.49393 7.87714 7.61575 7.9276C7.73757 7.97806 7.86814 8.00403 8 8.00403C8.13186 8.00403 8.26243 7.97806 8.38425 7.9276C8.50607 7.87714 8.61676 7.80318 8.71 7.70994L9.5 6.90994L11.09 8.49994L10.29 9.28994C10.1017 9.47824 9.99591 9.73364 9.99591 9.99994C9.99591 10.2662 10.1017 10.5216 10.29 10.7099C10.4783 10.8982 10.7337 11.004 11 11.004C11.2663 11.004 11.5217 10.8982 11.71 10.7099L12.5 9.90994L14.09 11.4999L13.29 12.2899C13.1017 12.4782 12.9959 12.7336 12.9959 12.9999C12.9959 13.2662 13.1017 13.5216 13.29 13.7099C13.4783 13.8982 13.7337 14.004 14 14.004C14.2663 14.004 14.5217 13.8982 14.71 13.7099L15.5 12.9099L17.09 14.4999L16.29 15.2899C16.1017 15.4782 15.9959 15.7336 15.9959 15.9999C15.9959 16.2662 16.1017 16.5216 16.29 16.7099C16.4783 16.8982 16.7337 17.004 17 17.004C17.2663 17.004 17.5217 16.8982 17.71 16.7099L18.5 15.9099L19.59 16.9999L17 19.5899Z" fill="#383838"/>
</svg>
