<svg width="24" height="24" viewBox="0 0 24 24" fill="none" xmlns="http://www.w3.org/2000/svg">
<path d="M5.83 11.55L7.83 9.55C8.22 9.16 8.85 9.16 9.24 9.55C9.63 9.94 9.63 10.57 9.24 10.96L7.24 12.96C7.04 13.16 6.79 13.25 6.53 13.25C6.27 13.25 6.02 13.15 5.82 12.96C5.43 12.57 5.43 11.94 5.82 11.55H5.83ZM4.83 9.96C5.03 10.16 5.28 10.25 5.54 10.25C5.8 10.25 6.05 10.15 6.25 9.96L7.25 8.96C7.64 8.57 7.64 7.94 7.25 7.55C6.86 7.16 6.23 7.16 5.84 7.55L4.84 8.55C4.45 8.94 4.45 9.57 4.84 9.96H4.83ZM20 14.5V17.5C20 19.15 18.65 20.5 17 20.5H5C3.35 20.5 2 19.15 2 17.5V7.5C2 5.84 3.35 4.5 5 4.5H13C13.55 4.5 14 4.95 14 5.5C14 6.05 13.55 6.5 13 6.5H12.25V18.5H17C17.55 18.5 18 18.05 18 17.5V14.5C18 13.95 18.45 13.5 19 13.5C19.55 13.5 20 13.95 20 14.5ZM10.25 6.5H5C4.45 6.5 4 6.95 4 7.5V17.5C4 18.05 4.45 18.5 5 18.5H10.25V6.5ZM22 8.5C22 8.94 21.71 9.33 21.28 9.46C20.75 9.62 19.78 10.02 19.39 10.46C18.99 10.92 18.61 12.09 18.47 12.72C18.37 13.18 17.96 13.5 17.49 13.5C17.02 13.5 16.62 13.18 16.51 12.72C16.37 12.09 15.99 10.92 15.59 10.46C15.21 10.02 14.23 9.61 13.7 9.46C13.27 9.33 12.98 8.94 12.98 8.5C12.98 8.06 13.27 7.67 13.7 7.54C14.23 7.38 15.2 6.98 15.59 6.54C15.99 6.08 16.37 4.91 16.51 4.28C16.61 3.82 17.02 3.5 17.49 3.5C17.96 3.5 18.36 3.82 18.47 4.28C18.61 4.91 18.99 6.08 19.39 6.54C19.77 6.98 20.75 7.39 21.28 7.54C21.71 7.67 22 8.06 22 8.5ZM18.64 8.5C18.36 8.31 18.1 8.1 17.89 7.85C17.75 7.69 17.62 7.5 17.5 7.31C17.38 7.51 17.25 7.69 17.11 7.85C16.9 8.09 16.64 8.31 16.36 8.5C16.64 8.69 16.9 8.9 17.11 9.15C17.25 9.31 17.38 9.5 17.5 9.69C17.62 9.49 17.75 9.31 17.89 9.15C18.1 8.91 18.36 8.69 18.64 8.5Z" fill="#383838"/>
</svg>
