<svg width="24" height="24" viewBox="0 0 24 24" fill="none" xmlns="http://www.w3.org/2000/svg">
<path d="M12 2C6.49 2 2 6.49 2 12C2 17.51 6.49 22 12 22C17.51 22 22 17.51 22 12C22 6.49 17.51 2 12 2ZM17.88 6.59C17.21 6.81 16.54 7.2 15.88 7.75C15.31 7.29 14.65 6.83 13.87 6.39C14.48 5.88 15.27 5.37 15.99 5.07C16.69 5.48 17.33 5.99 17.87 6.58L17.88 6.59ZM13.52 15.46C9.48 14.26 4.91 12.08 4.45 10.68C4.28 10.18 4.41 9.62 4.7 9.05C7.87 9.59 11.33 11.43 14.99 14.52C14.52 14.97 14.02 15.31 13.53 15.46H13.52ZM7.98 18.9C7.43 18.58 6.93 18.2 6.47 17.76C7.18 17.06 7.73 16.25 8.09 15.58C8.74 15.87 9.37 16.13 9.97 16.36C9.79 17.03 8.87 18.4 7.98 18.9ZM16.57 11.4C16.6 11.66 16.51 12.21 16.17 12.91C12.67 9.98 9.3 8.09 6.12 7.3C6.62 6.83 7.17 6.41 7.67 6.08C13.05 7.49 15.48 9.73 16.57 11.41V11.4ZM5.21 16.21C4.66 15.33 4.29 14.34 4.11 13.28C4.74 13.79 5.48 14.27 6.29 14.7C6.05 15.15 5.68 15.7 5.21 16.2V16.21ZM13.54 4.15C12.96 4.54 12.41 4.98 11.96 5.43C11.17 5.09 10.29 4.76 9.32 4.47C10.16 4.17 11.06 4 12 4C12.53 4 13.04 4.05 13.54 4.15ZM10.07 19.76C10.87 18.97 11.54 17.95 11.83 17.03C12.46 17.24 12.92 17.38 13.1 17.43C13.12 17.43 13.15 17.43 13.17 17.44C13.26 18.28 13.09 19.23 12.84 19.96C12.56 19.99 12.28 20.01 11.99 20.01C11.32 20.01 10.68 19.92 10.06 19.77L10.07 19.76ZM15.06 19.39C15.21 18.62 15.27 17.76 15.13 16.92C16.12 16.35 17.03 15.43 17.71 14.28C18.47 12.99 18.75 11.72 18.48 10.78C18.44 10.65 18.39 10.52 18.31 10.41C18.06 10.01 17.74 9.58 17.35 9.14C17.86 8.75 18.49 8.4 19.13 8.38C19.69 9.47 20.01 10.7 20.01 12C20.01 15.33 17.97 18.19 15.07 19.39H15.06Z" fill="#383838"/>
</svg>
