<svg width="24" height="24" viewBox="0 0 24 24" fill="none" xmlns="http://www.w3.org/2000/svg">
<path d="M17 2H7C5.35 2 4 3.35 4 5V19C4 20.65 5.35 22 7 22H17C18.65 22 20 20.65 20 19V5C20 3.35 18.65 2 17 2ZM18 19C18 19.55 17.55 20 17 20H7C6.45 20 6 19.55 6 19V5C6 4.45 6.45 4 7 4H17C17.55 4 18 4.45 18 5V19ZM14.5 17C14.5 17.55 14.05 18 13.5 18H10.5C10.11 18 9.75 17.77 9.59 17.42C9.43 17.07 9.49 16.65 9.74 16.35L11.32 14.5H10.49C9.94 14.5 9.49 14.05 9.49 13.5C9.49 12.95 9.94 12.5 10.49 12.5H13.49C13.88 12.5 14.24 12.73 14.4 13.08C14.56 13.43 14.5 13.85 14.25 14.15L12.67 16H13.5C14.05 16 14.5 16.45 14.5 17ZM16.88 7.98C16.61 8.46 16.01 8.64 15.52 8.38C15.51 8.38 13.88 7.5 12.19 7.5C10.5 7.5 9.03 8.36 9.01 8.37C8.85 8.46 8.68 8.51 8.51 8.51C8.17 8.51 7.83 8.33 7.65 8.02C7.37 7.54 7.53 6.93 8 6.65C8.08 6.6 9.97 5.5 12.2 5.5C14.43 5.5 16.41 6.58 16.49 6.63C16.97 6.9 17.15 7.5 16.88 7.99V7.98ZM15.42 10.4C15.2 10.9 14.61 11.14 14.1 10.91C14.1 10.91 13.11 10.48 12.22 10.48C11.33 10.48 10.49 10.88 10.48 10.88C10.33 10.96 10.17 10.99 10.02 10.99C9.66 10.99 9.31 10.79 9.13 10.45C8.87 9.96 9.06 9.36 9.55 9.1C9.67 9.04 10.8 8.47 12.21 8.47C13.51 8.47 14.76 9 14.9 9.07C15.41 9.29 15.63 9.88 15.41 10.39L15.42 10.4Z" fill="#383838"/>
</svg>
